<svg width="69" height="94" viewBox="0 0 69 94" fill="none" xmlns="http://www.w3.org/2000/svg">
<path d="M62.3191 50.8335L40.8813 87.7803C40.1756 88.9108 39.1966 89.8454 38.0345 90.4986C36.8725 91.1509 35.5649 91.501 34.2322 91.5152C32.9624 91.4976 31.7191 91.1493 30.625 90.5053C29.5309 89.8605 28.6239 88.941 27.9934 87.839L6.22058 50.239C3.41771 45.2909 1.9354 39.7049 1.91626 34.0182C1.91626 25.4408 5.32361 17.2148 11.3887 11.1496C17.4539 5.08452 25.6799 1.67717 34.2573 1.67717C42.8347 1.67717 51.0607 5.08452 57.1259 11.1496C63.1909 17.2148 66.5983 25.4408 66.5983 34.0182C66.7079 39.9059 65.2298 45.7145 62.3191 50.8335Z" fill="#F7D302"/>
<g filter="url(#filter0_b_1145_1506)">
<rect x="10.343" y="10.1024" width="47.6258" height="47.6258" rx="23.8129" fill="white" fill-opacity="0.9"/>
<g clip-path="url(#clip0_1145_1506)">
<path d="M31.433 20.7511L20.6103 41.0196C20.3638 41.4815 20.2411 41.9994 20.2542 42.5228C20.2674 43.0462 20.4158 43.5574 20.6851 44.0064C20.9544 44.4555 21.3354 44.8271 21.791 45.085C22.2466 45.3432 22.7612 45.4787 23.2848 45.479H44.7767C45.3003 45.4787 45.8149 45.3432 46.2705 45.085C46.7262 44.8271 47.107 44.4555 47.3763 44.0064C47.6456 43.5574 47.7942 43.0462 47.8072 42.5228C47.8204 41.9994 47.6978 41.4815 47.4513 41.0196L36.6285 20.7538C36.3661 20.2976 35.9874 19.9193 35.5311 19.6574C35.0747 19.3954 34.557 19.2593 34.0308 19.2629C33.504 19.2549 32.9849 19.3889 32.5278 19.6507C32.0707 19.9126 31.6925 20.2927 31.433 20.7511Z" stroke="#141414" stroke-width="1.05923" stroke-miterlimit="10"/>
<path d="M35.3682 41.0802C35.3682 40.4891 35.0867 40.2077 34.58 40.2077H33.4823C32.9476 40.2077 32.6661 40.4891 32.6661 41.0802V41.8402C32.6661 42.4594 32.9476 42.7408 33.4823 42.7408H34.58C35.0867 42.7408 35.3682 42.4594 35.3682 41.8402V41.0802ZM35.4244 23.8264V23.7138C35.4244 23.1509 35.143 22.8975 34.6082 22.8975H33.4542C32.9476 22.8975 32.6379 23.1509 32.6379 23.7138V23.8264L32.9476 36.4079C32.9757 37.0271 33.229 37.3367 33.7638 37.3367H34.3549C34.8615 37.3367 35.0867 37.0271 35.1148 36.4079L35.4244 23.8264Z" fill="#141414"/>
</g>
</g>
<defs>
<filter id="filter0_b_1145_1506" x="-0.240502" y="-0.481072" width="68.7929" height="68.7929" filterUnits="userSpaceOnUse" color-interpolation-filters="sRGB">
<feFlood flood-opacity="0" result="BackgroundImageFix"/>
<feGaussianBlur in="BackgroundImage" stdDeviation="5.29176"/>
<feComposite in2="SourceAlpha" operator="in" result="effect1_backgroundBlur_1145_1506"/>
<feBlend mode="normal" in="SourceGraphic" in2="effect1_backgroundBlur_1145_1506" result="shape"/>
</filter>
<clipPath id="clip0_1145_1506">
<rect width="28.8641" height="30.7178" fill="white" transform="translate(19.7239 17.3185)"/>
</clipPath>
</defs>
</svg>
