<svg width="69" height="94" viewBox="0 0 69 94" fill="none" xmlns="http://www.w3.org/2000/svg">
<path d="M62.6243 50.8335L41.1864 87.7803C40.4807 88.9108 39.5018 89.8454 38.3397 90.4986C37.1777 91.1509 35.8701 91.501 34.5373 91.5152C33.2676 91.4976 32.0243 91.1493 30.9302 90.5053C29.8361 89.8605 28.9291 88.941 28.2986 87.839L6.52576 50.239C3.72289 45.2909 2.24058 39.7049 2.22144 34.0182C2.22144 25.4408 5.62878 17.2148 11.6939 11.1496C17.759 5.08452 25.9851 1.67717 34.5625 1.67717C43.1399 1.67717 51.3659 5.08452 57.4311 11.1496C63.4961 17.2148 66.9035 25.4408 66.9035 34.0182C67.0131 39.9059 65.535 45.7145 62.6243 50.8335Z" fill="#104E9B"/>
<g filter="url(#filter0_b_1145_1528)">
<rect x="10.6481" y="10.1024" width="47.6258" height="47.6258" rx="23.8129" fill="white" fill-opacity="0.9"/>
<g clip-path="url(#clip0_1145_1528)">
<path d="M45.7181 47.8423C45.7181 43.5127 44.9243 39.1831 34.6054 39.1831C24.2864 39.1831 23.4927 43.5849 23.4927 47.8423" stroke="black" stroke-width="1.05924" stroke-linecap="round" stroke-linejoin="round"/>
<path d="M28.3997 32.4C28.3997 34.0597 29.0491 35.6472 30.2037 36.8018C31.3582 37.9563 32.9458 38.6058 34.6054 38.6058C36.2651 38.6058 37.8527 37.9563 39.0072 36.8018C40.1618 35.6472 40.8112 34.0597 40.8112 32.4" stroke="black" stroke-width="1.05924" stroke-miterlimit="10"/>
<path d="M27.8223 30.0187C27.8223 30.0187 25.0081 27.7817 25.3689 25.4726C26.4513 23.8129 30.2036 19.9884 34.5332 19.9884C38.8629 19.9884 42.6873 23.3078 43.6976 25.8334C43.2646 27.9261 41.3885 30.0187 41.3885 30.0187C41.3885 30.0187 42.6873 30.8125 42.2544 31.3898C41.8214 32.0392 38.7907 33.8432 34.2446 33.6989C30.2036 33.4102 26.8842 32.3278 26.5956 31.1733C26.9564 30.3074 27.8223 30.0187 27.8223 30.0187Z" stroke="black" stroke-width="1.05859" stroke-miterlimit="10" stroke-linejoin="round"/>
<path d="M34.5333 22.4419C34.5333 22.4419 34.0282 23.1635 32.9458 23.3799C32.9458 24.2459 33.5952 25.9777 34.5333 26.122C35.4714 25.9056 36.193 24.5345 36.193 23.3078C35.1828 23.0191 34.8941 22.8027 34.5333 22.4419Z" stroke="black" stroke-width="1.05859" stroke-miterlimit="10" stroke-linejoin="round"/>
<path d="M27.8223 30.0187V28.6477C27.8223 28.6477 30.9973 27.8539 34.5332 27.8539C38.069 27.8539 41.3163 28.9363 41.3163 28.9363V30.0187H27.8223Z" stroke="black" stroke-width="1.05859" stroke-miterlimit="10" stroke-linejoin="round"/>
</g>
</g>
<defs>
<filter id="filter0_b_1145_1528" x="0.0645514" y="-0.481072" width="68.7929" height="68.7929" filterUnits="userSpaceOnUse" color-interpolation-filters="sRGB">
<feFlood flood-opacity="0" result="BackgroundImageFix"/>
<feGaussianBlur in="BackgroundImage" stdDeviation="5.29176"/>
<feComposite in2="SourceAlpha" operator="in" result="effect1_backgroundBlur_1145_1528"/>
<feBlend mode="normal" in="SourceGraphic" in2="effect1_backgroundBlur_1145_1528" result="shape"/>
</filter>
<clipPath id="clip0_1145_1528">
<rect width="23.3078" height="28.8641" fill="white" transform="translate(22.9154 19.4833)"/>
</clipPath>
</defs>
</svg>
