<svg width="69" height="94" viewBox="0 0 69 94" fill="none" xmlns="http://www.w3.org/2000/svg">
<path d="M62.9539 50.8335L41.516 87.7803C40.8103 88.9108 39.8314 89.8454 38.6693 90.4986C37.5073 91.1509 36.1997 91.501 34.8669 91.5152C33.5972 91.4976 32.3538 91.1493 31.2598 90.5053C30.1657 89.8605 29.2587 88.941 28.6282 87.839L6.85535 50.239C4.05248 45.2909 2.57017 39.7049 2.55103 34.0182C2.55103 25.4408 5.95837 17.2148 12.0235 11.1496C18.0886 5.08452 26.3146 1.67717 34.8921 1.67717C43.4695 1.67717 51.6955 5.08452 57.7606 11.1496C63.8257 17.2148 67.2331 25.4408 67.2331 34.0182C67.3427 39.9059 65.8646 45.7145 62.9539 50.8335Z" fill="#FFA000"/>
<g filter="url(#filter0_b_1145_1551)">
<rect x="10.9778" y="10.1024" width="47.6258" height="47.6258" rx="23.8129" fill="white" fill-opacity="0.9"/>
<g clip-path="url(#clip0_1145_1551)">
<path d="M46.0191 46.3528C45.9899 42.0232 45.2247 37.6856 34.8971 37.6856C24.5696 37.6856 23.7963 42.0603 23.7751 46.3528" stroke="#141414" stroke-width="1.05923" stroke-linecap="round" stroke-linejoin="round"/>
<path d="M28.7156 30.896C28.7156 32.5352 29.3667 34.1072 30.5258 35.2663C31.6849 36.4254 33.257 37.0766 34.8962 37.0766C36.5354 37.0766 38.1075 36.4254 39.2666 35.2663C40.4257 34.1072 41.0768 32.5352 41.0768 30.896" stroke="#141414" stroke-width="1.05923" stroke-miterlimit="10"/>
<path d="M33.4578 26.6592V21.5775C33.4585 21.3544 33.5474 21.1406 33.7052 20.9828C33.8629 20.825 34.0767 20.7361 34.2999 20.7354H35.4915C35.7146 20.7361 35.9284 20.825 36.0862 20.9828C36.2439 21.1406 36.3329 21.3544 36.3336 21.5775V26.6592" stroke="#141414" stroke-width="1.05923" stroke-miterlimit="10" stroke-linecap="round"/>
<path d="M33.4587 22.0325C30.5855 22.6468 28.4432 25.0487 28.4432 27.9218C28.4494 28.0101 28.4317 28.0985 28.3922 28.1776C28.3526 28.2568 28.2925 28.3239 28.2182 28.372C28.2182 28.372 27.106 28.936 27.106 30.885H42.6264C42.6264 28.936 41.5168 28.372 41.5168 28.372C41.4419 28.3246 41.3813 28.2576 41.3417 28.1782C41.302 28.0989 41.2847 28.0103 41.2918 27.9218C41.2918 25.0487 39.1468 22.6468 36.2763 22.0325" stroke="#141414" stroke-width="1.05923" stroke-miterlimit="10"/>
</g>
</g>
<defs>
<filter id="filter0_b_1145_1551" x="0.394263" y="-0.481072" width="68.7928" height="68.7929" filterUnits="userSpaceOnUse" color-interpolation-filters="sRGB">
<feFlood flood-opacity="0" result="BackgroundImageFix"/>
<feGaussianBlur in="BackgroundImage" stdDeviation="5.29176"/>
<feComposite in2="SourceAlpha" operator="in" result="effect1_backgroundBlur_1145_1551"/>
<feBlend mode="normal" in="SourceGraphic" in2="effect1_backgroundBlur_1145_1551" result="shape"/>
</filter>
<clipPath id="clip0_1145_1551">
<rect width="23.3032" height="26.7457" fill="white" transform="translate(23.2451 20.2049)"/>
</clipPath>
</defs>
</svg>
