<svg width="69" height="95" viewBox="0 0 69 95" fill="none" xmlns="http://www.w3.org/2000/svg">
<path d="M62.2924 51.2455L40.8545 88.1924C40.1488 89.3229 39.1699 90.2574 38.0078 90.9106C36.8458 91.563 35.5382 91.913 34.2054 91.9272C32.9357 91.9097 31.6923 91.5613 30.5983 90.9173C29.5042 90.2725 28.5972 89.353 27.9667 88.251L6.19385 50.651C3.39098 45.7029 1.90867 40.117 1.88953 34.4302C1.88953 25.8528 5.29687 17.6268 11.362 11.5616C17.4271 5.49655 25.6531 2.0892 34.2306 2.0892C42.808 2.0892 51.034 5.49655 57.0991 11.5616C63.1642 17.6268 66.5716 25.8528 66.5716 34.4302C66.6812 40.3179 65.2031 46.1265 62.2924 51.2455Z" fill="#F7D302"/>
<g filter="url(#filter0_b_1145_1516)">
<rect x="10.3162" y="10.5145" width="47.6258" height="47.6258" rx="23.8129" fill="white" fill-opacity="0.9"/>
<g clip-path="url(#clip0_1145_1516)">
<path d="M39.8833 43.862H16.543" stroke="#141414" stroke-width="0.908352" stroke-linecap="round" stroke-linejoin="round"/>
<path d="M25.6768 27.6259L17.5583 43.8626" stroke="#141414" stroke-width="0.908352" stroke-linecap="round" stroke-linejoin="round"/>
<path d="M30.7507 27.6259L38.869 43.8626" stroke="#141414" stroke-width="0.908352" stroke-linecap="round" stroke-linejoin="round"/>
<path d="M28.2131 33.7136V35.7432" stroke="#141414" stroke-width="0.908352" stroke-linecap="round" stroke-linejoin="round"/>
<path d="M28.2131 30.1626V31.1774" stroke="#141414" stroke-width="0.908352" stroke-linecap="round" stroke-linejoin="round"/>
<path d="M28.2131 27.6259V28.1333" stroke="#141414" stroke-width="0.908352" stroke-linecap="round" stroke-linejoin="round"/>
<path d="M28.2131 38.2811V41.3255" stroke="#141414" stroke-width="0.908352" stroke-linecap="round" stroke-linejoin="round"/>
</g>
<g clip-path="url(#clip1_1145_1516)">
<path d="M42.3683 21.0165L36.5583 31.8971C36.426 32.1451 36.3602 32.4231 36.3672 32.7041C36.3743 32.9851 36.4539 33.2595 36.5985 33.5005C36.7431 33.7416 36.9476 33.9411 37.1922 34.0795C37.4368 34.2181 37.713 34.2909 37.9941 34.2911H49.5315C49.8126 34.2909 50.0889 34.2181 50.3334 34.0795C50.5781 33.9411 50.7825 33.7416 50.9271 33.5005C51.0717 33.2595 51.1514 32.9851 51.1584 32.7041C51.1655 32.4231 51.0997 32.1451 50.9673 31.8971L45.1574 21.0179C45.0165 20.773 44.8132 20.5699 44.5682 20.4293C44.3232 20.2887 44.0453 20.2156 43.7628 20.2175C43.4801 20.2132 43.2014 20.2852 42.956 20.4257C42.7106 20.5663 42.5076 20.7704 42.3683 21.0165Z" stroke="#141414" stroke-width="0.749761" stroke-miterlimit="10"/>
<path d="M44.4808 31.9297C44.4808 31.6124 44.3297 31.4613 44.0577 31.4613H43.4684C43.1813 31.4613 43.0302 31.6124 43.0302 31.9297V32.3376C43.0302 32.6701 43.1813 32.8211 43.4684 32.8211H44.0577C44.3297 32.8211 44.4808 32.6701 44.4808 32.3376V31.9297ZM44.511 22.6673V22.6069C44.511 22.3047 44.3599 22.1687 44.0728 22.1687H43.4533C43.1813 22.1687 43.0151 22.3047 43.0151 22.6069V22.6673L43.1813 29.4214C43.1965 29.7539 43.3324 29.9201 43.6195 29.9201H43.9368C44.2088 29.9201 44.3297 29.7539 44.3448 29.4214L44.511 22.6673Z" fill="#141414"/>
</g>
</g>
<defs>
<filter id="filter0_b_1145_1516" x="-0.267358" y="-0.0690336" width="68.7928" height="68.7929" filterUnits="userSpaceOnUse" color-interpolation-filters="sRGB">
<feFlood flood-opacity="0" result="BackgroundImageFix"/>
<feGaussianBlur in="BackgroundImage" stdDeviation="5.29176"/>
<feComposite in2="SourceAlpha" operator="in" result="effect1_backgroundBlur_1145_1516"/>
<feBlend mode="normal" in="SourceGraphic" in2="effect1_backgroundBlur_1145_1516" result="shape"/>
</filter>
<clipPath id="clip0_1145_1516">
<rect width="24.2984" height="17.2587" fill="white" transform="translate(16.0889 27.1712)"/>
</clipPath>
<clipPath id="clip1_1145_1516">
<rect width="15.4951" height="16.4902" fill="white" transform="translate(36.0825 19.1737)"/>
</clipPath>
</defs>
</svg>
