<svg width="68" height="94" viewBox="0 0 68 94" fill="none" xmlns="http://www.w3.org/2000/svg">
<path d="M62.1721 51.0429L40.7343 87.9897C40.0286 89.1202 39.0496 90.0548 37.8876 90.708C36.7256 91.3603 35.4179 91.7103 34.0852 91.7246C32.8154 91.707 31.5721 91.3586 30.478 90.7146C29.3839 90.0698 28.4769 89.1504 27.8464 88.0483L6.07361 50.4483C3.27074 45.5003 1.78843 39.9143 1.76929 34.2276C1.76929 25.6502 5.17663 17.4241 11.2417 11.359C17.3069 5.29388 25.5329 1.88654 34.1103 1.88654C42.6877 1.88654 50.9137 5.29388 56.9789 11.359C63.044 17.4241 66.4513 25.6502 66.4513 34.2276C66.561 40.1153 65.0828 45.9238 62.1721 51.0429Z" fill="#F7D302"/>
<g filter="url(#filter0_b_1145_1523)">
<rect x="10.196" y="10.3118" width="47.6258" height="47.6258" rx="23.8129" fill="white" fill-opacity="0.9"/>
<path d="M40.3445 22.9243C39.6444 19.3935 36.5397 16.8063 32.8871 16.8063C28.6867 16.8063 25.2776 20.2153 25.2776 24.4158C25.2776 24.9332 25.3385 25.4811 25.4298 25.9681C21.7773 26.029 18.8552 29.0119 18.8552 32.6645C18.8552 36.3475 21.8686 39.3608 25.5516 39.3608C25.6429 39.3608 25.7038 39.3608 25.7951 39.3608C25.8255 39.3608 25.856 39.3608 25.856 39.3608H26.4647L41.1359 39.2999C41.1663 39.2999 41.1663 39.2999 41.1967 39.2999C45.3363 38.8129 48.441 35.2821 48.441 31.1426C48.441 26.6682 44.8189 22.9852 40.3445 22.9243ZM41.1054 38.1433L26.4647 38.2042H25.9473C25.9168 38.2042 25.856 38.2042 25.8255 38.2042C25.7342 38.2042 25.6429 38.2042 25.5516 38.2042C22.5078 38.2042 20.0119 35.7083 20.0119 32.6645C20.0119 29.6207 22.5078 27.1247 25.5516 27.1247C25.7342 27.1247 25.9473 27.1247 26.1299 27.1552C26.3125 27.1856 26.5256 27.0943 26.6474 26.9421C26.7691 26.7899 26.7995 26.5769 26.7387 26.3942C26.5256 25.755 26.4343 25.0854 26.4343 24.3853C26.4343 20.8241 29.3259 17.9325 32.8871 17.9325C36.1136 17.9325 38.8834 20.3371 39.2791 23.5635C39.3096 23.8679 39.5835 24.0809 39.8879 24.0809C40.0096 24.0809 40.101 24.0809 40.2227 24.0809C44.1188 24.0809 47.2843 27.2465 47.2843 31.1426C47.2843 34.7038 44.6362 37.7172 41.1054 38.1433Z" fill="#141414"/>
<path d="M26.4339 41.4919C26.1296 41.4006 25.7947 41.5528 25.7034 41.8572L23.8771 47.0621C23.7858 47.3665 23.938 47.7013 24.2424 47.7926C24.3033 47.823 24.3642 47.823 24.425 47.823C24.6685 47.823 24.8816 47.6708 24.9729 47.4273L26.7992 42.2224C26.9209 41.9181 26.7383 41.5832 26.4339 41.4919Z" fill="#141414"/>
<path d="M30.0866 40.5185C29.7823 40.4272 29.4474 40.5794 29.3561 40.8837L26.3123 49.5586C26.221 49.863 26.3732 50.1978 26.6776 50.2891C26.7385 50.3195 26.7993 50.3195 26.8602 50.3195C27.1037 50.3195 27.3168 50.1673 27.4081 49.9238L30.4519 41.249C30.5432 40.9446 30.391 40.6402 30.0866 40.5185Z" fill="#141414"/>
<path d="M39.9486 40.5185C39.6443 40.4272 39.3094 40.5794 39.2181 40.8837L35.8699 50.4413C35.7786 50.7457 35.9308 51.0805 36.2352 51.1718C36.2961 51.2022 36.357 51.2022 36.4178 51.2022C36.6613 51.2022 36.8744 51.05 36.9657 50.8065L40.3139 41.249C40.4052 40.9446 40.253 40.6402 39.9486 40.5185Z" fill="#141414"/>
<path d="M33.0395 41.4919C32.7352 41.4006 32.4003 41.5528 32.309 41.8572L30.4827 47.0621C30.3914 47.3665 30.5436 47.7013 30.848 47.7926C30.9089 47.823 30.9697 47.823 31.0306 47.823C31.2741 47.823 31.4872 47.6708 31.5785 47.4273L33.4048 42.2224C33.4961 41.9181 33.3439 41.5832 33.0395 41.4919Z" fill="#141414"/>
<path d="M36.4481 41.1262C36.1437 41.0349 35.8089 41.1871 35.7176 41.4915L33.4348 48.0052C33.3435 48.3096 33.4956 48.6444 33.8 48.7357C33.8609 48.7662 33.9218 48.7662 33.9826 48.7662C34.2262 48.7662 34.4392 48.614 34.5305 48.3705L36.8134 41.8567C36.9047 41.5524 36.7525 41.2175 36.4481 41.1262Z" fill="#141414"/>
<path d="M42.5054 42.5263C42.201 42.435 41.8662 42.5872 41.7749 42.8916L40.253 47.2442C40.1617 47.5486 40.3139 47.8834 40.6183 47.9747C40.6791 48.0052 40.74 48.0052 40.8009 48.0052C41.0444 48.0052 41.2575 47.853 41.3488 47.6095L42.8707 43.2568C42.962 42.9524 42.7794 42.6176 42.5054 42.5263Z" fill="#141414"/>
</g>
<defs>
<filter id="filter0_b_1145_1523" x="-0.387475" y="-0.271699" width="68.7929" height="68.7929" filterUnits="userSpaceOnUse" color-interpolation-filters="sRGB">
<feFlood flood-opacity="0" result="BackgroundImageFix"/>
<feGaussianBlur in="BackgroundImage" stdDeviation="5.29176"/>
<feComposite in2="SourceAlpha" operator="in" result="effect1_backgroundBlur_1145_1523"/>
<feBlend mode="normal" in="SourceGraphic" in2="effect1_backgroundBlur_1145_1523" result="shape"/>
</filter>
</defs>
</svg>
